<?xml version="1.0" encoding="utf-8"?>
<!-- Generator: Adobe Illustrator 24.0.3, SVG Export Plug-In . SVG Version: 6.00 Build 0)  -->
<svg version="1.1" id="Capa_1" xmlns="http://www.w3.org/2000/svg" xmlns:xlink="http://www.w3.org/1999/xlink" x="0px" y="0px"
	 viewBox="0 0 562.4 575" style="enable-background:new 0 0 562.4 575;" xml:space="preserve">
<style type="text/css">
	.st0{fill:none;stroke:#27100A;stroke-width:4;stroke-miterlimit:10;}
</style>
<g id="Layer_1">
	<g>
		<g>
			<path d="M71.8,211.5c5.6,19.8,12.8,37.2,20.9,54.3c1.2,2.7,2,3.3,5,1.8c13.2-6.7,26.5-13.2,39.9-19.6c3-1.4,4.2-3.3,5-6.3
				c9.6-37.8,21.4-74.8,36-111.1c16.7-41.3,36-81.5,61.8-118c0.2-0.4,0.2-0.9,0.3-1.5c-23.8-2.2-45.6,4.2-67,13.3
				c-1.4,0.5-2.4,1.7-3.2,3c-16.6,25.5-31.9,51.7-42.6,80.3c-0.6,1.7-0.6,3.9-2,4.9c0-21.5,0-43.1,0-64.8
				c-18.1,6-34.7,14.3-49.4,26.3c-2.7,2.2-4.7,4.6-6.2,7.9C37.5,149.5,13.5,219.8,5.9,294.9c-1,11-2,22-1.1,33.8
				c17.7-13.6,35.3-26,53.3-38.2c1.6-1.1,1.3-2.5,1.5-3.9C62.4,261.8,67.1,237.5,71.8,211.5z M349.9,54.2c0-1.2,0-2.4,0-3.5
				c-0.6-23.4-13.9-37.3-37.3-39.1c-19.6-1.6-37.2,4.2-52.2,16.5c-40.1,32.9-64.9,75-72.6,126.4c-1.9,12.7-0.9,25.8,8.2,36.1
				c12.1,13.4,27.6,19,45.7,16.8c18.7-2.4,33.9-11.9,47.3-24.5c21.5-20,35.7-44.7,46.7-71.5C343.3,93,349.5,74.3,349.9,54.2z
				 M100.8,386.9c-1.4-1.5-1.9-2-2.4-2.8c-17.1-20.3-29.8-43.4-41.1-67.2c-1.5-3.1-2.4-3.5-5.3-1.6c-14.3,8.9-27.4,19.2-40.4,29.8
				c-2.6,2-2.1,3.7-1.1,6c15.3,37.4,35.1,72.3,61.3,103.1c13.7,16.1,28.7,30.6,46,42.7c2.6,1.8,4,1.6,6.3-0.5c8.8-8.6,18-17,27-25.4
				c1.6-1.5,2.5-2.8,2.2-5.2c-2-20.6-2.7-41.5-3.2-62.2c-0.9-32.2,0.2-64.3,2.2-96.4c1-15.7,2.5-31.3,4.3-47.3
				c-18.6,7.8-36.3,16.5-53.8,25.6c-1.9,1-2.1,2.4-2.3,4.1c-1.6,14.3-1.7,28.8-1.5,43.1C99.6,350.3,100.3,368,100.8,386.9z
				 M360.9,529.7c0-1.8,0.2-3.7-0.1-5.6c-0.6-3.6,0.4-5.1,4.4-5.9c7.5-1.2,14.8-3.6,21.3-7.7c3.1-1.9,3.9-0.7,5,1.9
				c3.2,7.3,6.7,14.7,10.1,22.1c0.8,1.8,1.3,3.1,4,1.9c9.8-4.3,19.3-9,27.5-16c2.7-2.3,3.4-4.3,2.1-7.8c-7.9-21.8-16-43.6-25.2-65.1
				c-11.6-27.4-24.2-54.3-39.9-79.6c-1.7-2.8-3.2-3.9-6.9-2.9c-22.5,5.6-43.8,14.2-64.6,24.5c-2.7,1.3-3,2.9-2.8,5.6
				c1.3,17.5,3.2,34.9,5.1,52.5c4.1,35.9,9.3,71.7,16.2,107.2c0.6,3,1.5,3.8,4.5,3.7c10.9-0.3,21.5-2.4,32.2-4.2
				c3.3-0.5,4.6-2.1,5.2-5C360.3,542.9,360.9,536.3,360.9,529.7z M241.5,403.3c16.2-8.7,31.7-17.2,47.3-25.5c3.2-1.7,1.7-3.4,1-5.3
				c-18.4-45.9-36.6-91.7-55-137.6c-1-2.7-1.9-3.6-4.9-2.5c-18.7,6.9-37.4,13.6-56.2,20.3c-2.4,0.9-3.6,2-4,5
				c-1.7,13.2-2.1,26.6-2.4,40c-1.2,48.5,0.5,97.1,2,145.6c0.1,3.5,0.5,6.9,0.8,10.9c16-12.7,31.5-24.8,48.1-35.7
				c1.8-1.2,1.7-2.7,1.6-4.4c-0.7-10.2-0.9-20.6-1.8-30.9c-0.9-12.2-1.1-12.1,9.7-18.1c2.6-1.4,3.5-1.5,4.2,1.7
				C235,378.8,238.3,390.9,241.5,403.3z M267.1,406.8c-1.8,0.9-3.2,1.6-4.4,2.4c-46.3,27.2-85.6,63-122.8,101.5
				c-1.8,1.8-1.5,2.8,0.3,4.2c11.2,9.4,23.4,17.2,36.3,23.9c2.2,1.2,3.5,0.9,5.3-0.8c5.3-5.2,10.9-10,16.2-15.4
				c2.4-2.3,3.7-2.5,6.5-0.4c14,10.6,28.2,21.1,42.2,31.7c18.6,14,38.8,11.5,59.9,6.3c-0.9-1.3-1.4-2.2-2-2.9
				c-17.5-23.7-33.3-48.4-46.7-74.7c-1.3-2.7-1.3-4.3,1.1-6.4c6.6-5.9,13.1-12.2,20.4-17.5c2.8-2.1,3.2-3.7,1.8-7
				C274.8,437.5,270,422.8,267.1,406.8z M386.5,296.7c0.3-8.7-1-17.6-2.2-26.5c-0.6-3.4-1.8-5.1-5.7-5.2
				c-16.9-0.2-33.3,2.2-49.7,5.9c-2.2,0.5-2.7,1.5-2.2,3.6c1.9,8.2,3.6,16.4,5.3,24.8c0.5,2.8,1.7,3.4,4.4,2.6
				c4.1-1.2,8.2-1.8,12.3-2.8c2-0.5,2.7-0.2,2.9,2c0.6,5.7-2.5,11.1-7.9,13.3c-11.5,5-22.6,0.8-27.8-10.7c-2.8-6.3-4.3-13.1-5-20
				c-1.5-15.2,4.6-25.1,18.9-30.2c8.4-2.9,17-3.2,25.5-1.7c3.2,0.6,4.1-0.1,4.5-3c1.3-9.9,2.7-19.8,4.1-29.5c0.4-2.7,0-3.9-3.1-4.4
				c-12.6-2-25.2-2.3-37.8,0.2c-21.8,4.5-39.5,15.2-47.8,36.5c-11.5,29.3-8.2,57.3,11.4,82.2c13.4,17.2,30.7,27.2,53.8,23.5
				c21.8-3.5,40.6-19.9,44.6-39.6C386.4,310.9,386.7,304,386.5,296.7z M474.7,454.2c6.1,2.9,11.3,5.3,16.4,7.7
				c1.6,0.7,2.8,1.3,4.6,0c10.9-8.9,20-19.2,26.3-31.8c1.4-2.8,0.2-3.7-2.1-4.6c-7-2.6-13.8-5.5-20.8-7.9c-3.6-1.2-4.5-2.4-2.9-6.2
				c7.1-17.9,0.1-36.2-16.9-45.2c-9-4.6-18.7-6.7-28.7-7.9c-18.4-2.1-36.7-1.1-55.1,1c-5.9,0.7-5.9,0.5-3.6,6.1
				c17.2,41.2,34.3,82.5,49.9,124.3c2.1,5.7,4.2,11.5,6.4,17.8c10.9-9.7,21.2-19,29.8-30c1.9-2.5,2.4-4.7,1.2-7.8
				C477.6,464.9,476.4,460,474.7,454.2z M322.8,194.4c14.9-0.8,29.1-0.7,43.2,0.4c3.6,0.3,5.8-0.9,8-3.7
				c21.4-26.2,39.3-54.5,53.3-85.2c1.5-3.3,2.7-3.6,5.7-1.7c4.5,2.9,9.5,5.3,14.1,8.1c2.5,1.6,3.8,1.4,5.5-1.3
				c4.8-7.5,8.6-15.6,12.4-23.8c2-4.3,1.3-6.7-2.4-9.6c-14.8-11.9-30.8-22.1-47.8-30.3c-17.1-8.3-34.9-14.8-54.1-19
				c2.2,12.5,1.8,24.5,0,36.3c-0.7,4.6,0.2,6.9,4.1,9.2c4.8,2.7,11.8,4.1,13.1,9.4c1.4,5.2-2.2,11-4.4,16.3
				c-11,27.7-26,53.3-41.1,79C329.4,183.5,326.2,188.6,322.8,194.4z M459.5,164.8c8.5,10,18.4,15.5,29.9,18.2
				c11.6,2.8,22.6,2.5,31.6-6.5c10.6-10.6,11.4-28.2,1.6-41.9c-8.4-11.9-20.7-18.1-34.1-22.2c-7.8-2.3-15.6-2.4-23.5-0.2
				c-32.5,9-49.3,51.7-32,81.9c13.6,24,40.1,34.4,67.5,32.2c2.7-0.2,2.9-1.9,3.3-3.5c1.7-7.3,3.3-14.5,5.2-21.7
				c0.9-3.3,0-3.8-3.2-3.8c-11.8,0-23.2-2.5-33.4-8.6C463.9,183.5,459.3,176.1,459.5,164.8z M483,252.7c0-2.3-0.3-3.8,0-5.3
				c1-4.5-1.1-6.6-5.4-7.8c-6.9-1.9-13.9-4-20.6-6.6c-4.3-1.6-5.3-0.7-5.8,3.8c-1.8,16.8-4.1,33.8-9,50.3c-1,3.5-2.3,7-4.5,10.1
				c-1,1.5-2.2,2.8-4.1,2.4c-1.8-0.3-2.3-1.9-2.8-3.3c-1.1-3.1-1.1-6.3-1.1-9.5c-0.1-18.8,2.8-37.1,5.9-55.4c0.5-2.9,0.1-4.4-3-5.1
				c-9.8-2-19.4-4.2-29.2-6.6c-3.1-0.8-3.6,0.3-4.2,3c-3.2,16.6-5.3,33.4-5.6,50.4c-0.4,17.1,0.4,34.2,7.8,50.1
				c10.6,22.8,38.1,27.5,56.1,10c5.7-5.6,9.7-12.2,12.8-19.4C479.3,294.1,481.8,273.2,483,252.7z M509.6,364.4
				c17.9,0.1,31.2-10.6,32.8-25.3c1.2-10.9-2.1-20.8-9.3-29.1c-3.4-4-7.2-7.6-9.5-12.4c-1.2-2.5-1.3-5.1,1.3-6.8
				c2.8-1.8,4.4,0.5,5.8,2.4c2.7,3.6,5.1,7.5,7.9,11.2c3,3.9,6.8,6,11.9,4.5c5.1-1.6,6.8-5.6,6.9-10.6c0-2.6-0.3-5.1-1.2-7.6
				c-3.3-9.8-8.8-18.2-17-24.6c-7.6-5.9-16.3-9.5-26-7.9c-24.6,4.1-34.1,29.7-18.6,49.4c3.8,4.8,7.7,9.5,10.2,15.1
				c1.4,3,2.5,6.3-0.5,8.9c-3.1,2.8-5.7,0.2-8.2-1.2c-3.9-2.3-7.4-5.4-11.5-7.5c-4.8-2.7-7.9-1.3-9.8,4c-2.3,6.5-1,12.5,2.7,17.9
				C485.7,357.1,497.7,363.1,509.6,364.4z"/>
		</g>
	</g>
</g>
<line class="st0" x1="-143.9" y1="0" x2="-143.9" y2="575"/>
</svg>
